<svg class="icon" style="width: 1em;height: 1em;vertical-align: middle;fill: currentColor;overflow: hidden;" viewBox="0 0 1024 1024" version="1.1" xmlns="http://www.w3.org/2000/svg"><path d="M457.61 666.96H162.82c-18.54 0-33.62-15.08-33.62-33.62V329.09c0-18.54 15.08-33.62 33.62-33.62h294.79c18.54 0 33.62 15.08 33.62 33.62v304.24c0.01 18.55-15.08 33.63-33.62 33.63z m-288.41-40h282.03V335.47H169.2v291.49zM868.58 405.45H596.25c-17.36 0-31.48-14.12-31.48-31.48v-47.01c0-17.36 14.12-31.48 31.48-31.48h272.32c17.36 0 31.48 14.12 31.48 31.48v47.01c0.01 17.36-14.12 31.48-31.47 31.48z m-263.81-40h255.29v-29.98H604.77v29.98z" fill="#004039" /><path d="M602.44 483.85m-25.55 0a25.55 25.55 0 1 0 51.1 0 25.55 25.55 0 1 0-51.1 0Z" fill="#004039" /><path d="M720.5 483.85m-25.55 0a25.55 25.55 0 1 0 51.1 0 25.55 25.55 0 1 0-51.1 0Z" fill="#004039" /><path d="M602.44 588.18c-14.09 0-25.55-11.46-25.55-25.55s11.46-25.55 25.55-25.55 25.55 11.46 25.55 25.55-11.46 25.55-25.55 25.55z" fill="#004039" /><path d="M602.44 641.41m-25.55 0a25.55 25.55 0 1 0 51.1 0 25.55 25.55 0 1 0-51.1 0Z" fill="#004039" /><path d="M720.5 588.18c-14.09 0-25.55-11.46-25.55-25.55s11.46-25.55 25.55-25.55 25.55 11.46 25.55 25.55-11.47 25.55-25.55 25.55z" fill="#004039" /><path d="M207.87 541.7v40.97h205.12V463.63c0-24.07-33.74-29.56-41.36-6.72-4.74 14.19-22.28 19.16-33.75 9.56l-10.6-8.86c-11.95-10-30.25-4.14-34.17 10.95l-7.74 29.8c-3.9 15.02-22.07 20.91-34.04 11.05l-2.76-2.27c-11.82-9.74-29.76-4.13-33.93 10.61l-6.77 23.95z" fill="#B4E7B4" /><path d="M909.97 824.64H114.03c-33.08 0-60-26.92-60-60V415.11c0-11.05 8.95-20 20-20s20 8.95 20 20v349.53c0 11.03 8.97 20 20 20h795.94c11.03 0 20-8.97 20-20V281.25c0-11.03-8.97-20-20-20H114.03c-10.96 0-19.93 8.92-20 19.88-0.07 11-9.01 19.88-20 19.88h-0.12c-11.05-0.07-19.95-9.07-19.88-20.12 0.19-32.89 27.11-59.64 60-59.64h795.94c33.08 0 60 26.92 60 60v483.39c0 33.09-26.91 60-60 60z" fill="#004039" /><path d="M74.03 374.06c-11.05 0-20-8.95-20-20v-7.96c0-11.05 8.95-20 20-20s20 8.95 20 20v7.96c0 11.05-8.96 20-20 20z" fill="#004039" /></svg>